<mxfile host="app.diagrams.net" agent="Mozilla/5.0 (Windows NT 10.0; Win64; x64) AppleWebKit/537.36 (KHTML, like Gecko) Chrome/137.0.0.0 Safari/537.36" version="27.2.0">
  <diagram name="Página-1" id="1dMZDdqAh4PtxUfNT-nn">
    <mxGraphModel dx="1426" dy="751" grid="1" gridSize="10" guides="1" tooltips="1" connect="1" arrows="1" fold="1" page="1" pageScale="1" pageWidth="827" pageHeight="1169" math="0" shadow="0">
      <root>
        <mxCell id="0" />
        <mxCell id="1" parent="0" />
        <mxCell id="zf80DWHK2e3_NO0RrL8I-9" style="edgeStyle=orthogonalEdgeStyle;rounded=0;orthogonalLoop=1;jettySize=auto;html=1;entryX=0;entryY=0.5;entryDx=0;entryDy=0;" edge="1" parent="1" source="zf80DWHK2e3_NO0RrL8I-1" target="zf80DWHK2e3_NO0RrL8I-7">
          <mxGeometry relative="1" as="geometry" />
        </mxCell>
        <mxCell id="zf80DWHK2e3_NO0RrL8I-53" style="edgeStyle=orthogonalEdgeStyle;rounded=0;orthogonalLoop=1;jettySize=auto;html=1;entryX=0;entryY=0.5;entryDx=0;entryDy=0;exitX=1;exitY=0.5;exitDx=0;exitDy=0;" edge="1" parent="1" source="zf80DWHK2e3_NO0RrL8I-1" target="zf80DWHK2e3_NO0RrL8I-50">
          <mxGeometry relative="1" as="geometry">
            <mxPoint x="190" y="305" as="sourcePoint" />
          </mxGeometry>
        </mxCell>
        <mxCell id="zf80DWHK2e3_NO0RrL8I-54" style="edgeStyle=orthogonalEdgeStyle;rounded=0;orthogonalLoop=1;jettySize=auto;html=1;entryX=0;entryY=0.5;entryDx=0;entryDy=0;exitX=1;exitY=0.5;exitDx=0;exitDy=0;" edge="1" parent="1" source="zf80DWHK2e3_NO0RrL8I-1" target="zf80DWHK2e3_NO0RrL8I-51">
          <mxGeometry relative="1" as="geometry">
            <mxPoint x="190" y="305" as="sourcePoint" />
          </mxGeometry>
        </mxCell>
        <mxCell id="zf80DWHK2e3_NO0RrL8I-55" style="edgeStyle=orthogonalEdgeStyle;rounded=0;orthogonalLoop=1;jettySize=auto;html=1;entryX=0;entryY=0.5;entryDx=0;entryDy=0;exitX=1;exitY=0.5;exitDx=0;exitDy=0;" edge="1" parent="1" source="zf80DWHK2e3_NO0RrL8I-1" target="zf80DWHK2e3_NO0RrL8I-52">
          <mxGeometry relative="1" as="geometry">
            <mxPoint x="190" y="305" as="sourcePoint" />
          </mxGeometry>
        </mxCell>
        <mxCell id="zf80DWHK2e3_NO0RrL8I-100" style="edgeStyle=orthogonalEdgeStyle;rounded=0;orthogonalLoop=1;jettySize=auto;html=1;entryX=0;entryY=0.5;entryDx=0;entryDy=0;" edge="1" parent="1" source="zf80DWHK2e3_NO0RrL8I-1" target="zf80DWHK2e3_NO0RrL8I-99">
          <mxGeometry relative="1" as="geometry" />
        </mxCell>
        <mxCell id="zf80DWHK2e3_NO0RrL8I-1" value="Receptor/Cliente" style="whiteSpace=wrap;html=1;align=center;" vertex="1" parent="1">
          <mxGeometry x="60" y="280" width="100" height="40" as="geometry" />
        </mxCell>
        <mxCell id="zf80DWHK2e3_NO0RrL8I-83" style="edgeStyle=orthogonalEdgeStyle;rounded=0;orthogonalLoop=1;jettySize=auto;html=1;entryX=0;entryY=0.5;entryDx=0;entryDy=0;" edge="1" parent="1" source="zf80DWHK2e3_NO0RrL8I-3" target="zf80DWHK2e3_NO0RrL8I-69">
          <mxGeometry relative="1" as="geometry" />
        </mxCell>
        <mxCell id="zf80DWHK2e3_NO0RrL8I-84" style="edgeStyle=orthogonalEdgeStyle;rounded=0;orthogonalLoop=1;jettySize=auto;html=1;entryX=0;entryY=0.5;entryDx=0;entryDy=0;" edge="1" parent="1" source="zf80DWHK2e3_NO0RrL8I-3" target="zf80DWHK2e3_NO0RrL8I-72">
          <mxGeometry relative="1" as="geometry" />
        </mxCell>
        <mxCell id="zf80DWHK2e3_NO0RrL8I-85" style="edgeStyle=orthogonalEdgeStyle;rounded=0;orthogonalLoop=1;jettySize=auto;html=1;entryX=0;entryY=0.5;entryDx=0;entryDy=0;" edge="1" parent="1" source="zf80DWHK2e3_NO0RrL8I-3" target="zf80DWHK2e3_NO0RrL8I-70">
          <mxGeometry relative="1" as="geometry" />
        </mxCell>
        <mxCell id="zf80DWHK2e3_NO0RrL8I-86" style="edgeStyle=orthogonalEdgeStyle;rounded=0;orthogonalLoop=1;jettySize=auto;html=1;entryX=0;entryY=0.5;entryDx=0;entryDy=0;" edge="1" parent="1" source="zf80DWHK2e3_NO0RrL8I-3" target="zf80DWHK2e3_NO0RrL8I-71">
          <mxGeometry relative="1" as="geometry" />
        </mxCell>
        <mxCell id="zf80DWHK2e3_NO0RrL8I-104" style="edgeStyle=orthogonalEdgeStyle;rounded=0;orthogonalLoop=1;jettySize=auto;html=1;entryX=0;entryY=0.5;entryDx=0;entryDy=0;" edge="1" parent="1" source="zf80DWHK2e3_NO0RrL8I-3" target="zf80DWHK2e3_NO0RrL8I-103">
          <mxGeometry relative="1" as="geometry" />
        </mxCell>
        <mxCell id="zf80DWHK2e3_NO0RrL8I-3" value="Sistema Utilizado" style="shape=ext;margin=3;double=1;whiteSpace=wrap;html=1;align=center;" vertex="1" parent="1">
          <mxGeometry x="940" y="250" width="100" height="40" as="geometry" />
        </mxCell>
        <mxCell id="zf80DWHK2e3_NO0RrL8I-10" value="" style="edgeStyle=orthogonalEdgeStyle;rounded=0;orthogonalLoop=1;jettySize=auto;html=1;" edge="1" parent="1" source="zf80DWHK2e3_NO0RrL8I-7" target="zf80DWHK2e3_NO0RrL8I-8">
          <mxGeometry relative="1" as="geometry" />
        </mxCell>
        <mxCell id="zf80DWHK2e3_NO0RrL8I-7" value="Registra" style="shape=rhombus;perimeter=rhombusPerimeter;whiteSpace=wrap;html=1;align=center;" vertex="1" parent="1">
          <mxGeometry x="160" y="10" width="120" height="60" as="geometry" />
        </mxCell>
        <mxCell id="zf80DWHK2e3_NO0RrL8I-12" value="" style="edgeStyle=orthogonalEdgeStyle;rounded=0;orthogonalLoop=1;jettySize=auto;html=1;" edge="1" parent="1" source="zf80DWHK2e3_NO0RrL8I-8" target="zf80DWHK2e3_NO0RrL8I-11">
          <mxGeometry relative="1" as="geometry" />
        </mxCell>
        <mxCell id="zf80DWHK2e3_NO0RrL8I-58" style="edgeStyle=orthogonalEdgeStyle;rounded=0;orthogonalLoop=1;jettySize=auto;html=1;entryX=0;entryY=0.5;entryDx=0;entryDy=0;" edge="1" parent="1" source="zf80DWHK2e3_NO0RrL8I-8" target="zf80DWHK2e3_NO0RrL8I-56">
          <mxGeometry relative="1" as="geometry" />
        </mxCell>
        <mxCell id="zf80DWHK2e3_NO0RrL8I-59" style="edgeStyle=orthogonalEdgeStyle;rounded=0;orthogonalLoop=1;jettySize=auto;html=1;entryX=0;entryY=0.5;entryDx=0;entryDy=0;" edge="1" parent="1" source="zf80DWHK2e3_NO0RrL8I-8" target="zf80DWHK2e3_NO0RrL8I-57">
          <mxGeometry relative="1" as="geometry" />
        </mxCell>
        <mxCell id="zf80DWHK2e3_NO0RrL8I-94" style="edgeStyle=orthogonalEdgeStyle;rounded=0;orthogonalLoop=1;jettySize=auto;html=1;entryX=0;entryY=0.5;entryDx=0;entryDy=0;" edge="1" parent="1" source="zf80DWHK2e3_NO0RrL8I-8" target="zf80DWHK2e3_NO0RrL8I-93">
          <mxGeometry relative="1" as="geometry" />
        </mxCell>
        <mxCell id="zf80DWHK2e3_NO0RrL8I-8" value="Reporte" style="shape=ext;margin=3;double=1;whiteSpace=wrap;html=1;align=center;" vertex="1" parent="1">
          <mxGeometry x="410" y="20" width="100" height="40" as="geometry" />
        </mxCell>
        <mxCell id="zf80DWHK2e3_NO0RrL8I-20" value="" style="edgeStyle=orthogonalEdgeStyle;rounded=0;orthogonalLoop=1;jettySize=auto;html=1;" edge="1" parent="1" source="zf80DWHK2e3_NO0RrL8I-11" target="zf80DWHK2e3_NO0RrL8I-18">
          <mxGeometry relative="1" as="geometry" />
        </mxCell>
        <mxCell id="zf80DWHK2e3_NO0RrL8I-11" value="¿Quien lo reporta?" style="shape=rhombus;perimeter=rhombusPerimeter;whiteSpace=wrap;html=1;align=center;" vertex="1" parent="1">
          <mxGeometry x="390" y="230" width="140" height="60" as="geometry" />
        </mxCell>
        <mxCell id="zf80DWHK2e3_NO0RrL8I-23" value="" style="edgeStyle=orthogonalEdgeStyle;rounded=0;orthogonalLoop=1;jettySize=auto;html=1;" edge="1" parent="1" source="zf80DWHK2e3_NO0RrL8I-18" target="zf80DWHK2e3_NO0RrL8I-22">
          <mxGeometry relative="1" as="geometry" />
        </mxCell>
        <mxCell id="zf80DWHK2e3_NO0RrL8I-62" value="" style="edgeStyle=orthogonalEdgeStyle;rounded=0;orthogonalLoop=1;jettySize=auto;html=1;" edge="1" parent="1" source="zf80DWHK2e3_NO0RrL8I-18" target="zf80DWHK2e3_NO0RrL8I-61">
          <mxGeometry relative="1" as="geometry" />
        </mxCell>
        <mxCell id="zf80DWHK2e3_NO0RrL8I-96" style="edgeStyle=orthogonalEdgeStyle;rounded=0;orthogonalLoop=1;jettySize=auto;html=1;entryX=0;entryY=0.5;entryDx=0;entryDy=0;" edge="1" parent="1" source="zf80DWHK2e3_NO0RrL8I-18" target="zf80DWHK2e3_NO0RrL8I-95">
          <mxGeometry relative="1" as="geometry" />
        </mxCell>
        <mxCell id="zf80DWHK2e3_NO0RrL8I-137" style="edgeStyle=orthogonalEdgeStyle;rounded=0;orthogonalLoop=1;jettySize=auto;html=1;entryX=0;entryY=0.5;entryDx=0;entryDy=0;" edge="1" parent="1" source="zf80DWHK2e3_NO0RrL8I-18" target="zf80DWHK2e3_NO0RrL8I-136">
          <mxGeometry relative="1" as="geometry" />
        </mxCell>
        <mxCell id="zf80DWHK2e3_NO0RrL8I-18" value="Receptor" style="shape=ext;margin=3;double=1;whiteSpace=wrap;html=1;align=center;" vertex="1" parent="1">
          <mxGeometry x="410" y="380" width="100" height="40" as="geometry" />
        </mxCell>
        <mxCell id="zf80DWHK2e3_NO0RrL8I-30" style="edgeStyle=orthogonalEdgeStyle;rounded=0;orthogonalLoop=1;jettySize=auto;html=1;entryX=0;entryY=0.5;entryDx=0;entryDy=0;" edge="1" parent="1" source="zf80DWHK2e3_NO0RrL8I-21" target="zf80DWHK2e3_NO0RrL8I-28">
          <mxGeometry relative="1" as="geometry" />
        </mxCell>
        <mxCell id="zf80DWHK2e3_NO0RrL8I-64" style="edgeStyle=orthogonalEdgeStyle;rounded=0;orthogonalLoop=1;jettySize=auto;html=1;entryX=0;entryY=0.5;entryDx=0;entryDy=0;" edge="1" parent="1" source="zf80DWHK2e3_NO0RrL8I-21" target="zf80DWHK2e3_NO0RrL8I-63">
          <mxGeometry relative="1" as="geometry" />
        </mxCell>
        <mxCell id="zf80DWHK2e3_NO0RrL8I-98" style="edgeStyle=orthogonalEdgeStyle;rounded=0;orthogonalLoop=1;jettySize=auto;html=1;entryX=0;entryY=0.5;entryDx=0;entryDy=0;" edge="1" parent="1" source="zf80DWHK2e3_NO0RrL8I-21" target="zf80DWHK2e3_NO0RrL8I-97">
          <mxGeometry relative="1" as="geometry" />
        </mxCell>
        <mxCell id="zf80DWHK2e3_NO0RrL8I-21" value="Regional" style="shape=ext;margin=3;double=1;whiteSpace=wrap;html=1;align=center;" vertex="1" parent="1">
          <mxGeometry x="410" y="600" width="100" height="40" as="geometry" />
        </mxCell>
        <mxCell id="zf80DWHK2e3_NO0RrL8I-24" value="" style="edgeStyle=orthogonalEdgeStyle;rounded=0;orthogonalLoop=1;jettySize=auto;html=1;" edge="1" parent="1" source="zf80DWHK2e3_NO0RrL8I-22" target="zf80DWHK2e3_NO0RrL8I-21">
          <mxGeometry relative="1" as="geometry" />
        </mxCell>
        <mxCell id="zf80DWHK2e3_NO0RrL8I-22" value="Desde donde lo reportan" style="shape=rhombus;perimeter=rhombusPerimeter;whiteSpace=wrap;html=1;align=center;" vertex="1" parent="1">
          <mxGeometry x="400" y="470" width="120" height="70" as="geometry" />
        </mxCell>
        <mxCell id="zf80DWHK2e3_NO0RrL8I-27" value="" style="edgeStyle=orthogonalEdgeStyle;rounded=0;orthogonalLoop=1;jettySize=auto;html=1;" edge="1" parent="1" source="zf80DWHK2e3_NO0RrL8I-25" target="zf80DWHK2e3_NO0RrL8I-3">
          <mxGeometry relative="1" as="geometry" />
        </mxCell>
        <mxCell id="zf80DWHK2e3_NO0RrL8I-25" value="¿Nombre DM?" style="shape=rhombus;perimeter=rhombusPerimeter;whiteSpace=wrap;html=1;align=center;" vertex="1" parent="1">
          <mxGeometry x="750" y="330" width="120" height="60" as="geometry" />
        </mxCell>
        <mxCell id="zf80DWHK2e3_NO0RrL8I-31" value="" style="edgeStyle=orthogonalEdgeStyle;rounded=0;orthogonalLoop=1;jettySize=auto;html=1;" edge="1" parent="1" source="zf80DWHK2e3_NO0RrL8I-28" target="zf80DWHK2e3_NO0RrL8I-29">
          <mxGeometry relative="1" as="geometry" />
        </mxCell>
        <mxCell id="zf80DWHK2e3_NO0RrL8I-28" value="Institución&amp;nbsp;&lt;div&gt;Registra&lt;/div&gt;" style="shape=rhombus;perimeter=rhombusPerimeter;whiteSpace=wrap;html=1;align=center;" vertex="1" parent="1">
          <mxGeometry x="750" y="610" width="120" height="60" as="geometry" />
        </mxCell>
        <mxCell id="zf80DWHK2e3_NO0RrL8I-32" value="" style="edgeStyle=orthogonalEdgeStyle;rounded=0;orthogonalLoop=1;jettySize=auto;html=1;" edge="1" parent="1" source="zf80DWHK2e3_NO0RrL8I-29" target="zf80DWHK2e3_NO0RrL8I-25">
          <mxGeometry relative="1" as="geometry" />
        </mxCell>
        <mxCell id="zf80DWHK2e3_NO0RrL8I-67" value="" style="edgeStyle=orthogonalEdgeStyle;rounded=0;orthogonalLoop=1;jettySize=auto;html=1;" edge="1" parent="1" source="zf80DWHK2e3_NO0RrL8I-29" target="zf80DWHK2e3_NO0RrL8I-66">
          <mxGeometry relative="1" as="geometry" />
        </mxCell>
        <mxCell id="zf80DWHK2e3_NO0RrL8I-68" style="edgeStyle=orthogonalEdgeStyle;rounded=0;orthogonalLoop=1;jettySize=auto;html=1;entryX=0;entryY=0.5;entryDx=0;entryDy=0;" edge="1" parent="1" source="zf80DWHK2e3_NO0RrL8I-29" target="zf80DWHK2e3_NO0RrL8I-65">
          <mxGeometry relative="1" as="geometry" />
        </mxCell>
        <mxCell id="zf80DWHK2e3_NO0RrL8I-29" value="Institución" style="shape=ext;margin=3;double=1;whiteSpace=wrap;html=1;align=center;" vertex="1" parent="1">
          <mxGeometry x="760" y="490" width="100" height="40" as="geometry" />
        </mxCell>
        <mxCell id="zf80DWHK2e3_NO0RrL8I-33" value="(1,N)" style="text;strokeColor=none;align=center;fillColor=none;html=1;verticalAlign=middle;whiteSpace=wrap;rounded=0;" vertex="1" parent="1">
          <mxGeometry x="120" y="210" width="60" height="30" as="geometry" />
        </mxCell>
        <mxCell id="zf80DWHK2e3_NO0RrL8I-34" value="(1,N)" style="text;strokeColor=none;align=center;fillColor=none;html=1;verticalAlign=middle;whiteSpace=wrap;rounded=0;" vertex="1" parent="1">
          <mxGeometry x="340" width="60" height="30" as="geometry" />
        </mxCell>
        <mxCell id="zf80DWHK2e3_NO0RrL8I-35" value="(1,1)" style="text;strokeColor=none;align=center;fillColor=none;html=1;verticalAlign=middle;whiteSpace=wrap;rounded=0;" vertex="1" parent="1">
          <mxGeometry x="460" y="70" width="60" height="30" as="geometry" />
        </mxCell>
        <mxCell id="zf80DWHK2e3_NO0RrL8I-36" value="(1,N)" style="text;strokeColor=none;align=center;fillColor=none;html=1;verticalAlign=middle;whiteSpace=wrap;rounded=0;" vertex="1" parent="1">
          <mxGeometry x="470" y="340" width="60" height="30" as="geometry" />
        </mxCell>
        <mxCell id="zf80DWHK2e3_NO0RrL8I-37" value="(1,N)" style="text;strokeColor=none;align=center;fillColor=none;html=1;verticalAlign=middle;whiteSpace=wrap;rounded=0;" vertex="1" parent="1">
          <mxGeometry x="470" y="430" width="60" height="30" as="geometry" />
        </mxCell>
        <mxCell id="zf80DWHK2e3_NO0RrL8I-38" value="(1,N)" style="text;strokeColor=none;align=center;fillColor=none;html=1;verticalAlign=middle;whiteSpace=wrap;rounded=0;" vertex="1" parent="1">
          <mxGeometry x="470" y="560" width="60" height="30" as="geometry" />
        </mxCell>
        <mxCell id="zf80DWHK2e3_NO0RrL8I-39" value="(1,N)" style="text;strokeColor=none;align=center;fillColor=none;html=1;verticalAlign=middle;whiteSpace=wrap;rounded=0;" vertex="1" parent="1">
          <mxGeometry x="750" y="540" width="60" height="30" as="geometry" />
        </mxCell>
        <mxCell id="zf80DWHK2e3_NO0RrL8I-40" value="(1,N)" style="text;strokeColor=none;align=center;fillColor=none;html=1;verticalAlign=middle;whiteSpace=wrap;rounded=0;" vertex="1" parent="1">
          <mxGeometry x="810" y="450" width="60" height="30" as="geometry" />
        </mxCell>
        <mxCell id="zf80DWHK2e3_NO0RrL8I-41" value="(1,N)" style="text;strokeColor=none;align=center;fillColor=none;html=1;verticalAlign=middle;whiteSpace=wrap;rounded=0;" vertex="1" parent="1">
          <mxGeometry x="930" y="300" width="60" height="30" as="geometry" />
        </mxCell>
        <mxCell id="zf80DWHK2e3_NO0RrL8I-50" value="Nombre" style="ellipse;whiteSpace=wrap;html=1;align=center;" vertex="1" parent="1">
          <mxGeometry x="200" y="365" width="100" height="40" as="geometry" />
        </mxCell>
        <mxCell id="zf80DWHK2e3_NO0RrL8I-51" value="E -mail" style="ellipse;whiteSpace=wrap;html=1;align=center;" vertex="1" parent="1">
          <mxGeometry x="200" y="425" width="100" height="40" as="geometry" />
        </mxCell>
        <mxCell id="zf80DWHK2e3_NO0RrL8I-52" value="Telefono" style="ellipse;whiteSpace=wrap;html=1;align=center;" vertex="1" parent="1">
          <mxGeometry x="200" y="490" width="100" height="40" as="geometry" />
        </mxCell>
        <mxCell id="zf80DWHK2e3_NO0RrL8I-56" value="Sugerencia" style="ellipse;whiteSpace=wrap;html=1;align=center;" vertex="1" parent="1">
          <mxGeometry x="580" y="20" width="100" height="40" as="geometry" />
        </mxCell>
        <mxCell id="zf80DWHK2e3_NO0RrL8I-76" style="edgeStyle=orthogonalEdgeStyle;rounded=0;orthogonalLoop=1;jettySize=auto;html=1;entryX=0;entryY=0.5;entryDx=0;entryDy=0;" edge="1" parent="1" source="zf80DWHK2e3_NO0RrL8I-57" target="zf80DWHK2e3_NO0RrL8I-73">
          <mxGeometry relative="1" as="geometry" />
        </mxCell>
        <mxCell id="zf80DWHK2e3_NO0RrL8I-77" style="edgeStyle=orthogonalEdgeStyle;rounded=0;orthogonalLoop=1;jettySize=auto;html=1;entryX=0;entryY=0.5;entryDx=0;entryDy=0;" edge="1" parent="1" source="zf80DWHK2e3_NO0RrL8I-57" target="zf80DWHK2e3_NO0RrL8I-74">
          <mxGeometry relative="1" as="geometry" />
        </mxCell>
        <mxCell id="zf80DWHK2e3_NO0RrL8I-78" style="edgeStyle=orthogonalEdgeStyle;rounded=0;orthogonalLoop=1;jettySize=auto;html=1;entryX=0;entryY=0.5;entryDx=0;entryDy=0;" edge="1" parent="1" source="zf80DWHK2e3_NO0RrL8I-57" target="zf80DWHK2e3_NO0RrL8I-75">
          <mxGeometry relative="1" as="geometry" />
        </mxCell>
        <mxCell id="zf80DWHK2e3_NO0RrL8I-57" value="Queja" style="ellipse;whiteSpace=wrap;html=1;align=center;" vertex="1" parent="1">
          <mxGeometry x="580" y="80" width="100" height="40" as="geometry" />
        </mxCell>
        <mxCell id="zf80DWHK2e3_NO0RrL8I-61" value="Nombre Paciente" style="ellipse;whiteSpace=wrap;html=1;align=center;" vertex="1" parent="1">
          <mxGeometry x="560" y="380" width="100" height="40" as="geometry" />
        </mxCell>
        <mxCell id="zf80DWHK2e3_NO0RrL8I-63" value="Ciudad" style="ellipse;whiteSpace=wrap;html=1;align=center;" vertex="1" parent="1">
          <mxGeometry x="550" y="680" width="100" height="40" as="geometry" />
        </mxCell>
        <mxCell id="zf80DWHK2e3_NO0RrL8I-65" value="Nombre Institución" style="ellipse;whiteSpace=wrap;html=1;align=center;" vertex="1" parent="1">
          <mxGeometry x="920" y="475" width="100" height="40" as="geometry" />
        </mxCell>
        <mxCell id="zf80DWHK2e3_NO0RrL8I-66" value="Especialista" style="ellipse;whiteSpace=wrap;html=1;align=center;" vertex="1" parent="1">
          <mxGeometry x="920" y="530" width="100" height="40" as="geometry" />
        </mxCell>
        <mxCell id="zf80DWHK2e3_NO0RrL8I-69" value="Nombre Sistema" style="ellipse;whiteSpace=wrap;html=1;align=center;" vertex="1" parent="1">
          <mxGeometry x="1110" y="250" width="100" height="40" as="geometry" />
        </mxCell>
        <mxCell id="zf80DWHK2e3_NO0RrL8I-70" value="Referencia" style="ellipse;whiteSpace=wrap;html=1;align=center;" vertex="1" parent="1">
          <mxGeometry x="1110" y="355" width="100" height="40" as="geometry" />
        </mxCell>
        <mxCell id="zf80DWHK2e3_NO0RrL8I-71" value="Lote" style="ellipse;whiteSpace=wrap;html=1;align=center;" vertex="1" parent="1">
          <mxGeometry x="1110" y="410" width="100" height="40" as="geometry" />
        </mxCell>
        <mxCell id="zf80DWHK2e3_NO0RrL8I-90" style="edgeStyle=orthogonalEdgeStyle;rounded=0;orthogonalLoop=1;jettySize=auto;html=1;entryX=0;entryY=0.5;entryDx=0;entryDy=0;" edge="1" parent="1" source="zf80DWHK2e3_NO0RrL8I-72" target="zf80DWHK2e3_NO0RrL8I-87">
          <mxGeometry relative="1" as="geometry" />
        </mxCell>
        <mxCell id="zf80DWHK2e3_NO0RrL8I-91" style="edgeStyle=orthogonalEdgeStyle;rounded=0;orthogonalLoop=1;jettySize=auto;html=1;entryX=0;entryY=0.5;entryDx=0;entryDy=0;" edge="1" parent="1" source="zf80DWHK2e3_NO0RrL8I-72" target="zf80DWHK2e3_NO0RrL8I-88">
          <mxGeometry relative="1" as="geometry" />
        </mxCell>
        <mxCell id="zf80DWHK2e3_NO0RrL8I-92" style="edgeStyle=orthogonalEdgeStyle;rounded=0;orthogonalLoop=1;jettySize=auto;html=1;entryX=0;entryY=0.5;entryDx=0;entryDy=0;" edge="1" parent="1" source="zf80DWHK2e3_NO0RrL8I-72" target="zf80DWHK2e3_NO0RrL8I-89">
          <mxGeometry relative="1" as="geometry" />
        </mxCell>
        <mxCell id="zf80DWHK2e3_NO0RrL8I-72" value="Número Set" style="ellipse;whiteSpace=wrap;html=1;align=center;" vertex="1" parent="1">
          <mxGeometry x="1110" y="300" width="100" height="40" as="geometry" />
        </mxCell>
        <mxCell id="zf80DWHK2e3_NO0RrL8I-73" value="Servicio" style="ellipse;whiteSpace=wrap;html=1;align=center;dashed=1;" vertex="1" parent="1">
          <mxGeometry x="740" y="80" width="100" height="40" as="geometry" />
        </mxCell>
        <mxCell id="zf80DWHK2e3_NO0RrL8I-81" style="edgeStyle=orthogonalEdgeStyle;rounded=0;orthogonalLoop=1;jettySize=auto;html=1;entryX=0;entryY=0.5;entryDx=0;entryDy=0;" edge="1" parent="1" source="zf80DWHK2e3_NO0RrL8I-74" target="zf80DWHK2e3_NO0RrL8I-79">
          <mxGeometry relative="1" as="geometry" />
        </mxCell>
        <mxCell id="zf80DWHK2e3_NO0RrL8I-82" style="edgeStyle=orthogonalEdgeStyle;rounded=0;orthogonalLoop=1;jettySize=auto;html=1;entryX=0;entryY=0.5;entryDx=0;entryDy=0;" edge="1" parent="1" source="zf80DWHK2e3_NO0RrL8I-74" target="zf80DWHK2e3_NO0RrL8I-80">
          <mxGeometry relative="1" as="geometry" />
        </mxCell>
        <mxCell id="zf80DWHK2e3_NO0RrL8I-74" value="Producto" style="ellipse;whiteSpace=wrap;html=1;align=center;dashed=1;" vertex="1" parent="1">
          <mxGeometry x="740" y="130" width="100" height="40" as="geometry" />
        </mxCell>
        <mxCell id="zf80DWHK2e3_NO0RrL8I-75" value="Equipo de Poder" style="ellipse;whiteSpace=wrap;html=1;align=center;dashed=1;" vertex="1" parent="1">
          <mxGeometry x="740" y="190" width="100" height="40" as="geometry" />
        </mxCell>
        <mxCell id="zf80DWHK2e3_NO0RrL8I-79" value="Instrumental" style="ellipse;whiteSpace=wrap;html=1;align=center;dashed=1;" vertex="1" parent="1">
          <mxGeometry x="900" y="120" width="100" height="40" as="geometry" />
        </mxCell>
        <mxCell id="zf80DWHK2e3_NO0RrL8I-80" value="Implantes" style="ellipse;whiteSpace=wrap;html=1;align=center;dashed=1;" vertex="1" parent="1">
          <mxGeometry x="900" y="161" width="100" height="40" as="geometry" />
        </mxCell>
        <mxCell id="zf80DWHK2e3_NO0RrL8I-87" value="Número set Implantes" style="ellipse;whiteSpace=wrap;html=1;align=center;dashed=1;" vertex="1" parent="1">
          <mxGeometry x="1280" y="265" width="100" height="40" as="geometry" />
        </mxCell>
        <mxCell id="zf80DWHK2e3_NO0RrL8I-88" value="Número set Instrumental" style="ellipse;whiteSpace=wrap;html=1;align=center;dashed=1;" vertex="1" parent="1">
          <mxGeometry x="1280" y="315" width="100" height="40" as="geometry" />
        </mxCell>
        <mxCell id="zf80DWHK2e3_NO0RrL8I-89" value="Número set EP" style="ellipse;whiteSpace=wrap;html=1;align=center;dashed=1;" vertex="1" parent="1">
          <mxGeometry x="1280" y="365" width="100" height="40" as="geometry" />
        </mxCell>
        <mxCell id="zf80DWHK2e3_NO0RrL8I-93" value="Código Queja" style="ellipse;whiteSpace=wrap;html=1;align=center;fontStyle=4;" vertex="1" parent="1">
          <mxGeometry x="580" y="130" width="100" height="40" as="geometry" />
        </mxCell>
        <mxCell id="zf80DWHK2e3_NO0RrL8I-95" value="Código Queja" style="ellipse;whiteSpace=wrap;html=1;align=center;fontStyle=4;" vertex="1" parent="1">
          <mxGeometry x="560" y="490" width="100" height="40" as="geometry" />
        </mxCell>
        <mxCell id="zf80DWHK2e3_NO0RrL8I-97" value="Código Queja" style="ellipse;whiteSpace=wrap;html=1;align=center;fontStyle=4;" vertex="1" parent="1">
          <mxGeometry x="550" y="730" width="100" height="40" as="geometry" />
        </mxCell>
        <mxCell id="zf80DWHK2e3_NO0RrL8I-99" value="Código Queja" style="ellipse;whiteSpace=wrap;html=1;align=center;fontStyle=4;" vertex="1" parent="1">
          <mxGeometry x="200" y="550" width="100" height="40" as="geometry" />
        </mxCell>
        <mxCell id="zf80DWHK2e3_NO0RrL8I-101" value="Código Queja" style="ellipse;whiteSpace=wrap;html=1;align=center;fontStyle=4;" vertex="1" parent="1">
          <mxGeometry x="920" y="584.5" width="100" height="40" as="geometry" />
        </mxCell>
        <mxCell id="zf80DWHK2e3_NO0RrL8I-102" style="edgeStyle=orthogonalEdgeStyle;rounded=0;orthogonalLoop=1;jettySize=auto;html=1;entryX=-0.01;entryY=0.713;entryDx=0;entryDy=0;entryPerimeter=0;" edge="1" parent="1" source="zf80DWHK2e3_NO0RrL8I-29" target="zf80DWHK2e3_NO0RrL8I-101">
          <mxGeometry relative="1" as="geometry" />
        </mxCell>
        <mxCell id="zf80DWHK2e3_NO0RrL8I-103" value="Código Queja" style="ellipse;whiteSpace=wrap;html=1;align=center;fontStyle=4;" vertex="1" parent="1">
          <mxGeometry x="1110" y="470" width="100" height="40" as="geometry" />
        </mxCell>
        <mxCell id="zf80DWHK2e3_NO0RrL8I-105" value="Receptor/CLiente" style="shape=table;startSize=30;container=1;collapsible=1;childLayout=tableLayout;fixedRows=1;rowLines=0;fontStyle=1;align=center;resizeLast=1;html=1;" vertex="1" parent="1">
          <mxGeometry x="200" y="930" width="180" height="150" as="geometry">
            <mxRectangle x="230" y="840" width="130" height="30" as="alternateBounds" />
          </mxGeometry>
        </mxCell>
        <mxCell id="zf80DWHK2e3_NO0RrL8I-106" value="" style="shape=tableRow;horizontal=0;startSize=0;swimlaneHead=0;swimlaneBody=0;fillColor=none;collapsible=0;dropTarget=0;points=[[0,0.5],[1,0.5]];portConstraint=eastwest;top=0;left=0;right=0;bottom=1;" vertex="1" parent="zf80DWHK2e3_NO0RrL8I-105">
          <mxGeometry y="30" width="180" height="30" as="geometry" />
        </mxCell>
        <mxCell id="zf80DWHK2e3_NO0RrL8I-107" value="PK" style="shape=partialRectangle;connectable=0;fillColor=none;top=0;left=0;bottom=0;right=0;fontStyle=1;overflow=hidden;whiteSpace=wrap;html=1;" vertex="1" parent="zf80DWHK2e3_NO0RrL8I-106">
          <mxGeometry width="30" height="30" as="geometry">
            <mxRectangle width="30" height="30" as="alternateBounds" />
          </mxGeometry>
        </mxCell>
        <mxCell id="zf80DWHK2e3_NO0RrL8I-108" value="Código Queja" style="shape=partialRectangle;connectable=0;fillColor=none;top=0;left=0;bottom=0;right=0;align=left;spacingLeft=6;fontStyle=5;overflow=hidden;whiteSpace=wrap;html=1;" vertex="1" parent="zf80DWHK2e3_NO0RrL8I-106">
          <mxGeometry x="30" width="150" height="30" as="geometry">
            <mxRectangle width="150" height="30" as="alternateBounds" />
          </mxGeometry>
        </mxCell>
        <mxCell id="zf80DWHK2e3_NO0RrL8I-109" value="" style="shape=tableRow;horizontal=0;startSize=0;swimlaneHead=0;swimlaneBody=0;fillColor=none;collapsible=0;dropTarget=0;points=[[0,0.5],[1,0.5]];portConstraint=eastwest;top=0;left=0;right=0;bottom=0;" vertex="1" parent="zf80DWHK2e3_NO0RrL8I-105">
          <mxGeometry y="60" width="180" height="30" as="geometry" />
        </mxCell>
        <mxCell id="zf80DWHK2e3_NO0RrL8I-110" value="" style="shape=partialRectangle;connectable=0;fillColor=none;top=0;left=0;bottom=0;right=0;editable=1;overflow=hidden;whiteSpace=wrap;html=1;" vertex="1" parent="zf80DWHK2e3_NO0RrL8I-109">
          <mxGeometry width="30" height="30" as="geometry">
            <mxRectangle width="30" height="30" as="alternateBounds" />
          </mxGeometry>
        </mxCell>
        <mxCell id="zf80DWHK2e3_NO0RrL8I-111" value="Nombre" style="shape=partialRectangle;connectable=0;fillColor=none;top=0;left=0;bottom=0;right=0;align=left;spacingLeft=6;overflow=hidden;whiteSpace=wrap;html=1;" vertex="1" parent="zf80DWHK2e3_NO0RrL8I-109">
          <mxGeometry x="30" width="150" height="30" as="geometry">
            <mxRectangle width="150" height="30" as="alternateBounds" />
          </mxGeometry>
        </mxCell>
        <mxCell id="zf80DWHK2e3_NO0RrL8I-112" value="" style="shape=tableRow;horizontal=0;startSize=0;swimlaneHead=0;swimlaneBody=0;fillColor=none;collapsible=0;dropTarget=0;points=[[0,0.5],[1,0.5]];portConstraint=eastwest;top=0;left=0;right=0;bottom=0;" vertex="1" parent="zf80DWHK2e3_NO0RrL8I-105">
          <mxGeometry y="90" width="180" height="30" as="geometry" />
        </mxCell>
        <mxCell id="zf80DWHK2e3_NO0RrL8I-113" value="" style="shape=partialRectangle;connectable=0;fillColor=none;top=0;left=0;bottom=0;right=0;editable=1;overflow=hidden;whiteSpace=wrap;html=1;" vertex="1" parent="zf80DWHK2e3_NO0RrL8I-112">
          <mxGeometry width="30" height="30" as="geometry">
            <mxRectangle width="30" height="30" as="alternateBounds" />
          </mxGeometry>
        </mxCell>
        <mxCell id="zf80DWHK2e3_NO0RrL8I-114" value="E-mail" style="shape=partialRectangle;connectable=0;fillColor=none;top=0;left=0;bottom=0;right=0;align=left;spacingLeft=6;overflow=hidden;whiteSpace=wrap;html=1;" vertex="1" parent="zf80DWHK2e3_NO0RrL8I-112">
          <mxGeometry x="30" width="150" height="30" as="geometry">
            <mxRectangle width="150" height="30" as="alternateBounds" />
          </mxGeometry>
        </mxCell>
        <mxCell id="zf80DWHK2e3_NO0RrL8I-115" value="" style="shape=tableRow;horizontal=0;startSize=0;swimlaneHead=0;swimlaneBody=0;fillColor=none;collapsible=0;dropTarget=0;points=[[0,0.5],[1,0.5]];portConstraint=eastwest;top=0;left=0;right=0;bottom=0;" vertex="1" parent="zf80DWHK2e3_NO0RrL8I-105">
          <mxGeometry y="120" width="180" height="30" as="geometry" />
        </mxCell>
        <mxCell id="zf80DWHK2e3_NO0RrL8I-116" value="" style="shape=partialRectangle;connectable=0;fillColor=none;top=0;left=0;bottom=0;right=0;editable=1;overflow=hidden;whiteSpace=wrap;html=1;" vertex="1" parent="zf80DWHK2e3_NO0RrL8I-115">
          <mxGeometry width="30" height="30" as="geometry">
            <mxRectangle width="30" height="30" as="alternateBounds" />
          </mxGeometry>
        </mxCell>
        <mxCell id="zf80DWHK2e3_NO0RrL8I-117" value="Telefono" style="shape=partialRectangle;connectable=0;fillColor=none;top=0;left=0;bottom=0;right=0;align=left;spacingLeft=6;overflow=hidden;whiteSpace=wrap;html=1;" vertex="1" parent="zf80DWHK2e3_NO0RrL8I-115">
          <mxGeometry x="30" width="150" height="30" as="geometry">
            <mxRectangle width="150" height="30" as="alternateBounds" />
          </mxGeometry>
        </mxCell>
        <mxCell id="zf80DWHK2e3_NO0RrL8I-118" value="" style="shape=tableRow;horizontal=0;startSize=0;swimlaneHead=0;swimlaneBody=0;fillColor=none;collapsible=0;dropTarget=0;points=[[0,0.5],[1,0.5]];portConstraint=eastwest;top=0;left=0;right=0;bottom=0;" vertex="1" parent="1">
          <mxGeometry x="234" y="990" width="180" height="30" as="geometry" />
        </mxCell>
        <mxCell id="zf80DWHK2e3_NO0RrL8I-119" value="" style="shape=partialRectangle;connectable=0;fillColor=none;top=0;left=0;bottom=0;right=0;editable=1;overflow=hidden;whiteSpace=wrap;html=1;" vertex="1" parent="zf80DWHK2e3_NO0RrL8I-118">
          <mxGeometry width="30" height="30" as="geometry">
            <mxRectangle width="30" height="30" as="alternateBounds" />
          </mxGeometry>
        </mxCell>
        <mxCell id="zf80DWHK2e3_NO0RrL8I-121" value="" style="shape=partialRectangle;connectable=0;fillColor=none;top=0;left=0;bottom=0;right=0;editable=1;overflow=hidden;whiteSpace=wrap;html=1;" vertex="1" parent="1">
          <mxGeometry x="234" y="990" width="30" height="30" as="geometry">
            <mxRectangle width="30" height="30" as="alternateBounds" />
          </mxGeometry>
        </mxCell>
        <mxCell id="zf80DWHK2e3_NO0RrL8I-123" value="Reporte" style="shape=table;startSize=30;container=1;collapsible=1;childLayout=tableLayout;fixedRows=1;rowLines=0;fontStyle=1;align=center;resizeLast=1;html=1;" vertex="1" parent="1">
          <mxGeometry x="560" y="860" width="180" height="120" as="geometry" />
        </mxCell>
        <mxCell id="zf80DWHK2e3_NO0RrL8I-124" value="" style="shape=tableRow;horizontal=0;startSize=0;swimlaneHead=0;swimlaneBody=0;fillColor=none;collapsible=0;dropTarget=0;points=[[0,0.5],[1,0.5]];portConstraint=eastwest;top=0;left=0;right=0;bottom=1;" vertex="1" parent="zf80DWHK2e3_NO0RrL8I-123">
          <mxGeometry y="30" width="180" height="30" as="geometry" />
        </mxCell>
        <mxCell id="zf80DWHK2e3_NO0RrL8I-125" value="PK" style="shape=partialRectangle;connectable=0;fillColor=none;top=0;left=0;bottom=0;right=0;fontStyle=1;overflow=hidden;whiteSpace=wrap;html=1;" vertex="1" parent="zf80DWHK2e3_NO0RrL8I-124">
          <mxGeometry width="30" height="30" as="geometry">
            <mxRectangle width="30" height="30" as="alternateBounds" />
          </mxGeometry>
        </mxCell>
        <mxCell id="zf80DWHK2e3_NO0RrL8I-126" value="Código Queja" style="shape=partialRectangle;connectable=0;fillColor=none;top=0;left=0;bottom=0;right=0;align=left;spacingLeft=6;fontStyle=5;overflow=hidden;whiteSpace=wrap;html=1;" vertex="1" parent="zf80DWHK2e3_NO0RrL8I-124">
          <mxGeometry x="30" width="150" height="30" as="geometry">
            <mxRectangle width="150" height="30" as="alternateBounds" />
          </mxGeometry>
        </mxCell>
        <mxCell id="zf80DWHK2e3_NO0RrL8I-127" value="" style="shape=tableRow;horizontal=0;startSize=0;swimlaneHead=0;swimlaneBody=0;fillColor=none;collapsible=0;dropTarget=0;points=[[0,0.5],[1,0.5]];portConstraint=eastwest;top=0;left=0;right=0;bottom=0;" vertex="1" parent="zf80DWHK2e3_NO0RrL8I-123">
          <mxGeometry y="60" width="180" height="30" as="geometry" />
        </mxCell>
        <mxCell id="zf80DWHK2e3_NO0RrL8I-128" value="" style="shape=partialRectangle;connectable=0;fillColor=none;top=0;left=0;bottom=0;right=0;editable=1;overflow=hidden;whiteSpace=wrap;html=1;" vertex="1" parent="zf80DWHK2e3_NO0RrL8I-127">
          <mxGeometry width="30" height="30" as="geometry">
            <mxRectangle width="30" height="30" as="alternateBounds" />
          </mxGeometry>
        </mxCell>
        <mxCell id="zf80DWHK2e3_NO0RrL8I-129" value="Sugerencia" style="shape=partialRectangle;connectable=0;fillColor=none;top=0;left=0;bottom=0;right=0;align=left;spacingLeft=6;overflow=hidden;whiteSpace=wrap;html=1;" vertex="1" parent="zf80DWHK2e3_NO0RrL8I-127">
          <mxGeometry x="30" width="150" height="30" as="geometry">
            <mxRectangle width="150" height="30" as="alternateBounds" />
          </mxGeometry>
        </mxCell>
        <mxCell id="zf80DWHK2e3_NO0RrL8I-130" value="" style="shape=tableRow;horizontal=0;startSize=0;swimlaneHead=0;swimlaneBody=0;fillColor=none;collapsible=0;dropTarget=0;points=[[0,0.5],[1,0.5]];portConstraint=eastwest;top=0;left=0;right=0;bottom=0;" vertex="1" parent="zf80DWHK2e3_NO0RrL8I-123">
          <mxGeometry y="90" width="180" height="30" as="geometry" />
        </mxCell>
        <mxCell id="zf80DWHK2e3_NO0RrL8I-131" value="" style="shape=partialRectangle;connectable=0;fillColor=none;top=0;left=0;bottom=0;right=0;editable=1;overflow=hidden;whiteSpace=wrap;html=1;" vertex="1" parent="zf80DWHK2e3_NO0RrL8I-130">
          <mxGeometry width="30" height="30" as="geometry">
            <mxRectangle width="30" height="30" as="alternateBounds" />
          </mxGeometry>
        </mxCell>
        <mxCell id="zf80DWHK2e3_NO0RrL8I-132" value="Queja" style="shape=partialRectangle;connectable=0;fillColor=none;top=0;left=0;bottom=0;right=0;align=left;spacingLeft=6;overflow=hidden;whiteSpace=wrap;html=1;" vertex="1" parent="zf80DWHK2e3_NO0RrL8I-130">
          <mxGeometry x="30" width="150" height="30" as="geometry">
            <mxRectangle width="150" height="30" as="alternateBounds" />
          </mxGeometry>
        </mxCell>
        <mxCell id="zf80DWHK2e3_NO0RrL8I-136" value="&lt;span style=&quot;border-bottom: 1px dotted&quot;&gt;Cedula Paciente&lt;/span&gt;" style="ellipse;whiteSpace=wrap;html=1;align=center;" vertex="1" parent="1">
          <mxGeometry x="560" y="435" width="100" height="40" as="geometry" />
        </mxCell>
        <mxCell id="zf80DWHK2e3_NO0RrL8I-143" style="edgeStyle=orthogonalEdgeStyle;rounded=0;orthogonalLoop=1;jettySize=auto;html=1;entryX=0;entryY=0.5;entryDx=0;entryDy=0;" edge="1" parent="1" source="zf80DWHK2e3_NO0RrL8I-109" target="zf80DWHK2e3_NO0RrL8I-127">
          <mxGeometry relative="1" as="geometry" />
        </mxCell>
        <mxCell id="zf80DWHK2e3_NO0RrL8I-157" value="Receptor" style="shape=table;startSize=30;container=1;collapsible=1;childLayout=tableLayout;fixedRows=1;rowLines=0;fontStyle=1;align=center;resizeLast=1;html=1;" vertex="1" parent="1">
          <mxGeometry x="880" y="980" width="180" height="120" as="geometry" />
        </mxCell>
        <mxCell id="zf80DWHK2e3_NO0RrL8I-158" value="" style="shape=tableRow;horizontal=0;startSize=0;swimlaneHead=0;swimlaneBody=0;fillColor=none;collapsible=0;dropTarget=0;points=[[0,0.5],[1,0.5]];portConstraint=eastwest;top=0;left=0;right=0;bottom=1;" vertex="1" parent="zf80DWHK2e3_NO0RrL8I-157">
          <mxGeometry y="30" width="180" height="30" as="geometry" />
        </mxCell>
        <mxCell id="zf80DWHK2e3_NO0RrL8I-159" value="PK" style="shape=partialRectangle;connectable=0;fillColor=none;top=0;left=0;bottom=0;right=0;fontStyle=1;overflow=hidden;whiteSpace=wrap;html=1;" vertex="1" parent="zf80DWHK2e3_NO0RrL8I-158">
          <mxGeometry width="30" height="30" as="geometry">
            <mxRectangle width="30" height="30" as="alternateBounds" />
          </mxGeometry>
        </mxCell>
        <mxCell id="zf80DWHK2e3_NO0RrL8I-160" value="Código Queja" style="shape=partialRectangle;connectable=0;fillColor=none;top=0;left=0;bottom=0;right=0;align=left;spacingLeft=6;fontStyle=5;overflow=hidden;whiteSpace=wrap;html=1;" vertex="1" parent="zf80DWHK2e3_NO0RrL8I-158">
          <mxGeometry x="30" width="150" height="30" as="geometry">
            <mxRectangle width="150" height="30" as="alternateBounds" />
          </mxGeometry>
        </mxCell>
        <mxCell id="zf80DWHK2e3_NO0RrL8I-161" value="" style="shape=tableRow;horizontal=0;startSize=0;swimlaneHead=0;swimlaneBody=0;fillColor=none;collapsible=0;dropTarget=0;points=[[0,0.5],[1,0.5]];portConstraint=eastwest;top=0;left=0;right=0;bottom=0;" vertex="1" parent="zf80DWHK2e3_NO0RrL8I-157">
          <mxGeometry y="60" width="180" height="30" as="geometry" />
        </mxCell>
        <mxCell id="zf80DWHK2e3_NO0RrL8I-162" value="" style="shape=partialRectangle;connectable=0;fillColor=none;top=0;left=0;bottom=0;right=0;editable=1;overflow=hidden;whiteSpace=wrap;html=1;" vertex="1" parent="zf80DWHK2e3_NO0RrL8I-161">
          <mxGeometry width="30" height="30" as="geometry">
            <mxRectangle width="30" height="30" as="alternateBounds" />
          </mxGeometry>
        </mxCell>
        <mxCell id="zf80DWHK2e3_NO0RrL8I-163" value="Nombre Paciente" style="shape=partialRectangle;connectable=0;fillColor=none;top=0;left=0;bottom=0;right=0;align=left;spacingLeft=6;overflow=hidden;whiteSpace=wrap;html=1;" vertex="1" parent="zf80DWHK2e3_NO0RrL8I-161">
          <mxGeometry x="30" width="150" height="30" as="geometry">
            <mxRectangle width="150" height="30" as="alternateBounds" />
          </mxGeometry>
        </mxCell>
        <mxCell id="zf80DWHK2e3_NO0RrL8I-171" value="" style="shape=tableRow;horizontal=0;startSize=0;swimlaneHead=0;swimlaneBody=0;fillColor=none;collapsible=0;dropTarget=0;points=[[0,0.5],[1,0.5]];portConstraint=eastwest;top=0;left=0;right=0;bottom=0;" vertex="1" parent="zf80DWHK2e3_NO0RrL8I-157">
          <mxGeometry y="90" width="180" height="30" as="geometry" />
        </mxCell>
        <mxCell id="zf80DWHK2e3_NO0RrL8I-172" value="FK" style="shape=partialRectangle;connectable=0;fillColor=none;top=0;left=0;bottom=0;right=0;fontStyle=0;overflow=hidden;whiteSpace=wrap;html=1;" vertex="1" parent="zf80DWHK2e3_NO0RrL8I-171">
          <mxGeometry width="30" height="30" as="geometry">
            <mxRectangle width="30" height="30" as="alternateBounds" />
          </mxGeometry>
        </mxCell>
        <mxCell id="zf80DWHK2e3_NO0RrL8I-173" value="Cedula Paciente" style="shape=partialRectangle;connectable=0;fillColor=none;top=0;left=0;bottom=0;right=0;align=left;spacingLeft=6;fontStyle=0;overflow=hidden;whiteSpace=wrap;html=1;" vertex="1" parent="zf80DWHK2e3_NO0RrL8I-171">
          <mxGeometry x="30" width="150" height="30" as="geometry">
            <mxRectangle width="150" height="30" as="alternateBounds" />
          </mxGeometry>
        </mxCell>
        <mxCell id="zf80DWHK2e3_NO0RrL8I-174" style="edgeStyle=orthogonalEdgeStyle;rounded=0;orthogonalLoop=1;jettySize=auto;html=1;entryX=0;entryY=1.033;entryDx=0;entryDy=0;entryPerimeter=0;" edge="1" parent="1" source="zf80DWHK2e3_NO0RrL8I-123" target="zf80DWHK2e3_NO0RrL8I-171">
          <mxGeometry relative="1" as="geometry" />
        </mxCell>
      </root>
    </mxGraphModel>
  </diagram>
</mxfile>
